<?xml version="1.0" encoding="utf-8"?>
<!-- Generator: Adobe Illustrator 23.0.3, SVG Export Plug-In . SVG Version: 6.00 Build 0)  -->
<svg version="1.1" id="Layer_1" xmlns="http://www.w3.org/2000/svg" xmlns:xlink="http://www.w3.org/1999/xlink" x="0px" y="0px"
	 viewBox="0 0 2000 2000" style="enable-background:new 0 0 2000 2000;" xml:space="preserve">
<style type="text/css">
	.st0{fill-rule:evenodd;clip-rule:evenodd;fill:#FFFFFF;}
	.st1{fill-rule:evenodd;clip-rule:evenodd;}
</style>
<g id="circulo">
	<g>
		<path class="st0" d="M1955.3,1000.8c0,527.8-427.9,955.8-955.8,955.8s-955.7-428-955.7-955.8C43.7,473,471.6,45.1,999.5,45.1
			S1955.3,473,1955.3,1000.8"/>
	</g>
</g>
<g id="gal">
	<path id="l_8_" class="st1" d="M1430.6,627.3h139.5v430c0,19.7-3.1,45,3.4,57.9c10.1,20.6,47.7,11.2,73.9,13.2v120.7
		c-37.4-1.1-72.5,2.5-102.6-2.2c-58.5-9-96.8-45.3-110.3-99.3c-6.9-27.6-4.4-63-4.4-100.3V628.9C1430,628.1,1430,627.4,1430.6,627.3
		"/>
	<path id="a_8_" class="st1" d="M1335.8,1249.1h-137.2v-37c-2.1-0.9-3.9,2.9-6.1,5c-15.1,14.5-33.9,27.1-59.1,32.5
		c-29.4,6.5-64.6,4.4-91.9-4.3c-50.8-16.4-85.8-55.8-94.3-114.1c-10.4-71.2,19.2-120.4,61.2-144.5c22.4-12.9,50.8-20.2,82.7-21.5
		c32-1.2,67.6,1,104.1,0c1.4-31.1-3.9-51.8-23.1-62.3c-18.1-9.9-46.3-10.7-69.4-6.6c-23.6,4.2-39.4,18.1-50.7,29.2
		c-25-25.6-50.2-51.2-76.5-77.8c-2.2-2.1-10.5-10.1-10.5-11c-0.1-1.7,10.7-10.9,13.1-13.3c13.4-12.1,30.4-22.9,46.8-30.8
		c25.3-12.2,54-16.7,86.1-18.2c119.8-5.6,203.3,30.3,221.6,129c4.8,26,3.3,54.9,3.3,84.3v261.4H1335.8z M1116.4,1060.5
		c-24.1,2.6-39.6,20.6-36.4,43.6c6.4,45.4,87.6,41.5,107.4,8.9c7.9-12.9,7.7-29.1,7.7-52.4C1168,1062.6,1142.6,1057.9,1116.4,1060.5
		"/>
	<path id="g_8_" class="st1" d="M732.6,816.4V779h136.1v401.3c0,23.5,1.3,45.4-1.5,65.1c-13,90.7-81.3,148.8-174.7,159.2
		c-90.2,10.2-163.1-14.2-204.6-58.9c25-27.2,50.3-51.2,76.1-78.9c2.9-3.1,10.1-10.9,11.1-11c1.3,0,11.9,10.6,14.3,12.2
		c15.4,10.6,34.2,17.3,60.1,17.7c61.8,0.5,85.1-35.4,79.4-104.3c-10.5,7.3-19.4,16.3-30.9,22.6c-35.6,19.6-96.2,19-135,2.2
		c-24.3-10.5-44.2-27.6-59.1-50.1c-28.5-43.7-25.4-120.5-25.4-192.5c0-36.4,2.3-70.2,11.6-97.6c17.5-51.6,64-88.3,127.9-92.1
		C673.9,770.7,706.9,790.6,732.6,816.4 M619.1,990.6c0,30.9,1,63.8,13.3,81c12.9,18.1,44.4,24.6,67.8,12.7
		c24.8-12.7,30.1-51.6,28.6-90.4c-1.9-50.3-6.2-94.3-59-90.4C624.7,906.8,619.1,943.4,619.1,990.6"/>
</g>
<g id="punto">
	<path class="st1" d="M194.1,1099.2h156c1.3,51.3,0.2,105,0.6,157.2H193.5v-155.5C193.4,1100.1,193.4,1099.3,194.1,1099.2"/>
</g>
</svg>
